<?xml version="1.0" encoding="UTF-8" standalone="no"?>
<svg
   width="1457.9896"
   height="758.44965"
   viewBox="23 7 770.09073 389.87924"
   version="1.1"
   id="svg706"
   xmlns="http://www.w3.org/2000/svg"
   xmlns:svg="http://www.w3.org/2000/svg"
   xmlns:rdf="http://www.w3.org/1999/02/22-rdf-syntax-ns#"
   xmlns:cc="http://creativecommons.org/ns#"
   xmlns:dc="http://purl.org/dc/elements/1.1/">
  <metadata
     id="metadata712">
    <rdf:RDF>
      <cc:Work
         rdf:about="">
        <dc:format>image/svg+xml</dc:format>
        <dc:type
           rdf:resource="http://purl.org/dc/dcmitype/StillImage" />
      </cc:Work>
    </rdf:RDF>
  </metadata>
  <defs
     id="defs710">
    <clipPath
       id="clip1">
      <path
         id="path2575"
         d="M 0.0820312,246 H 9 v 9 H 0.0820312 Z m 0,0" />
    </clipPath>
    <clipPath
       id="clip2">
      <path
         id="path2578"
         d="m 31,246 h 11 v 10.74219 H 31 Z m 0,0" />
    </clipPath>
    <clipPath
       id="clip3">
      <path
         id="path2581"
         d="m 183,246 h 10 v 10.74219 h -10 z m 0,0" />
    </clipPath>
    <clipPath
       id="clip4">
      <path
         id="path2584"
         d="m 220,243 h 8 v 13.74219 h -8 z m 0,0" />
    </clipPath>
    <clipPath
       id="clip5">
      <path
         id="path2587"
         d="m 243,244 h 6.01953 v 11 H 243 Z m 0,0" />
    </clipPath>
  </defs>
  <g
     id="g42"
     transform="translate(-94.699236,-12.503279)">
    <path
       style="fill:#0096d4"
       d="m 404.432,112.301 v 86.368 h 86.487 v -86.368 z"
       id="path2" />
    <path
       style="fill:none;fill-opacity:0;stroke:#aae6ff;stroke-width:0.02"
       d="m 404.432,112.301 v 86.368 h 86.487 v -86.368 h -86.487"
       id="path4" />
    <path
       style="fill:#00b4ff"
       d="M 404.432,112.301 415.481,102 h 86.436 l -10.998,10.301 z"
       id="path6" />
    <path
       style="fill:none;fill-opacity:0;stroke:#aae6ff;stroke-width:0.02"
       d="M 404.432,112.301 415.481,102 h 86.436 l -10.998,10.301 h -86.487"
       id="path8" />
    <path
       style="fill:#005a80"
       d="M 490.919,112.301 501.917,102 v 85.586 l -10.998,10.301 z"
       id="path10" />
    <path
       style="fill:none;fill-opacity:0;stroke:#aae6ff;stroke-width:0.02"
       d="M 490.919,112.301 501.917,102 v 85.586 l -10.998,10.301 v -85.586"
       id="path12" />
    <path
       style="fill:#000000"
       d="m 445.33,161.46 h 5.507 v 23.73 h 5.508 l -8.652,8.703 -8.635,-8.703 h 6.272 z"
       id="path14" />
    <path
       style="fill:#000000"
       d="m 445.33,161.46 h 5.507 v 23.73 h 5.508 l -8.652,8.703 -8.635,-8.703 h 6.272 z"
       id="path16" />
    <path
       style="fill:#000000"
       d="m 456.345,159.046 4.708,-2.345 11.78,20.585 5.508,-3.162 -3.145,11.882 -11.78,-3.196 4.675,-3.162 z"
       id="path18" />
    <path
       style="fill:#000000"
       d="m 456.345,159.046 4.708,-2.345 11.78,20.585 5.508,-3.162 -3.145,11.882 -11.78,-3.196 4.675,-3.162 z"
       id="path20" />
    <path
       style="fill:#000000"
       d="m 439.058,159.046 -4.709,-2.345 -11.831,20.585 -4.708,-3.162 3.161,11.882 11.797,-3.196 -4.742,-3.162 11.779,-20.602 v 0 z"
       id="path22" />
    <path
       style="fill:#000000"
       d="m 439.058,159.046 -4.709,-2.345 -11.831,20.585 -4.708,-3.162 3.161,11.882 11.797,-3.196 -4.742,-3.162 11.779,-20.602 z"
       id="path24" />
    <path
       style="fill:#ffffff"
       d="m 444.565,160.644 h 5.49 v 23.764 h 5.474 l -8.618,8.72 -8.669,-8.72 h 6.323 z"
       id="path26" />
    <path
       style="fill:#ffffff"
       d="m 444.565,160.644 h 5.49 v 23.764 h 5.474 l -8.618,8.72 -8.669,-8.72 h 6.323 z"
       id="path28" />
    <path
       style="fill:#ffffff"
       d="m 455.529,158.264 4.742,-2.396 11.814,20.602 5.457,-3.128 -3.128,11.848 -11.797,-3.128 4.709,-3.196 z"
       id="path30" />
    <path
       style="fill:#ffffff"
       d="m 455.529,158.264 4.742,-2.396 11.814,20.602 5.457,-3.128 -3.128,11.848 -11.797,-3.128 4.709,-3.196 z"
       id="path32" />
    <path
       style="fill:#ffffff"
       d="m 438.242,158.264 -4.709,-2.396 -11.814,20.602 -4.674,-3.128 3.127,11.848 11.78,-3.128 -4.691,-3.196 11.797,-20.602 v 0 z"
       id="path34" />
    <path
       style="fill:#ffffff"
       d="m 438.242,158.264 -4.709,-2.396 -11.814,20.602 -4.674,-3.128 3.127,11.848 11.78,-3.128 -4.691,-3.196 11.797,-20.602 z"
       id="path36" />
    <path
       style="fill:#000000"
       d="m 465.813,140.076 -0.136,2.278 -0.425,2.227 -0.714,2.159 -0.969,2.073 -1.224,1.921 -1.445,1.751 -1.665,1.547 -1.836,1.343 -1.989,1.105 -2.125,0.833 -2.193,0.56 -2.26,0.289 h -2.278 l -2.261,-0.289 -2.193,-0.56 -2.125,-0.833 -1.988,-1.105 -1.836,-1.343 -1.666,-1.547 -1.445,-1.751 -1.224,-1.921 -0.969,-2.073 -0.714,-2.159 -0.425,-2.227 -0.135,-2.278 0.135,-2.278 0.425,-2.226 0.714,-2.159 0.969,-2.074 1.224,-1.921 1.445,-1.751 1.666,-1.546 1.836,-1.343 1.988,-1.105 2.125,-0.833 2.193,-0.561 2.261,-0.289 h 2.278 l 2.26,0.289 2.193,0.561 2.125,0.833 1.989,1.105 1.836,1.343 1.665,1.546 1.445,1.751 1.224,1.921 0.969,2.074 0.714,2.159 0.425,2.226 0.136,2.278 h -3.672 l -0.119,-1.819 -0.34,-1.767 -0.561,-1.734 -0.765,-1.632 -0.968,-1.547 -1.156,-1.394 -1.326,-1.241 -1.479,-1.071 -1.581,-0.866 -1.683,-0.663 -1.768,-0.459 -1.801,-0.221 h -1.802 l -1.802,0.221 -1.768,0.459 -1.683,0.663 -1.581,0.866 -1.478,1.071 -1.326,1.241 -1.156,1.394 -0.969,1.547 -0.765,1.632 -0.561,1.734 -0.34,1.767 -0.119,1.819 0.119,1.819 0.34,1.768 0.561,1.734 0.765,1.632 0.969,1.546 1.156,1.394 1.326,1.241 1.478,1.071 1.581,0.867 1.683,0.663 1.768,0.459 1.802,0.221 h 1.802 l 1.801,-0.221 1.768,-0.459 1.683,-0.663 1.581,-0.867 1.479,-1.071 1.326,-1.241 1.156,-1.394 0.968,-1.546 0.765,-1.632 0.561,-1.734 0.34,-1.768 0.119,-1.819 z"
       id="path38" />
    <path
       style="fill:#ffffff"
       d="m 464.997,139.26 -0.136,2.278 -0.425,2.227 -0.714,2.159 -0.969,2.073 -1.224,1.921 -1.445,1.751 -1.665,1.547 -1.836,1.343 -1.989,1.105 -2.125,0.833 -2.193,0.561 -2.26,0.289 h -2.278 l -2.261,-0.289 -2.193,-0.561 -2.124,-0.833 -1.989,-1.105 -1.836,-1.343 -1.666,-1.547 -1.445,-1.751 -1.224,-1.921 -0.969,-2.073 -0.713,-2.159 -0.425,-2.227 -0.136,-2.278 0.136,-2.277 0.425,-2.227 0.713,-2.159 0.969,-2.074 1.224,-1.921 1.445,-1.75 1.666,-1.547 1.836,-1.343 1.989,-1.105 2.124,-0.833 2.193,-0.561 2.261,-0.289 h 2.278 l 2.26,0.289 2.193,0.561 2.125,0.833 1.989,1.105 1.836,1.343 1.665,1.547 1.445,1.75 1.224,1.921 0.969,2.074 0.714,2.159 0.425,2.227 0.136,2.277 h -3.672 l -0.119,-1.819 -0.34,-1.767 -0.561,-1.734 -0.764,-1.632 -0.969,-1.547 -1.156,-1.394 -1.326,-1.241 -1.479,-1.07 -1.581,-0.867 -1.683,-0.663 -1.767,-0.459 -1.802,-0.221 h -1.802 l -1.802,0.221 -1.768,0.459 -1.683,0.663 -1.58,0.867 -1.479,1.07 -1.326,1.241 -1.156,1.394 -0.969,1.547 -0.765,1.632 -0.561,1.734 -0.34,1.767 -0.119,1.819 0.119,1.819 0.34,1.768 0.561,1.734 0.765,1.632 0.969,1.546 1.156,1.394 1.326,1.241 1.479,1.071 1.58,0.867 1.683,0.663 1.768,0.459 1.802,0.221 h 1.802 l 1.802,-0.221 1.767,-0.459 1.683,-0.663 1.581,-0.867 1.479,-1.071 1.326,-1.241 1.156,-1.394 0.969,-1.546 0.764,-1.632 0.561,-1.734 0.34,-1.768 0.119,-1.819 z"
       id="path40" />
  </g>
  <g
     id="g174"
     transform="translate(-94.699236,-12.503279)">
    <path
       style="fill:#00b4ff"
       d="m 361.248,322.182 14.404,-13.359 H 488.66 l -14.348,13.359 z"
       id="path110" />
    <path
       style="fill:none;fill-opacity:0;stroke:#aae6ff;stroke-width:0.02"
       d="m 361.248,322.182 14.404,-13.359 H 488.66 l -14.348,13.359 H 361.248"
       id="path112" />
    <path
       style="fill:#cf0e30"
       d="m 361.248,261.396 v 60.786 h 113.064 v -60.786 z"
       id="path114" />
    <path
       style="fill:none;fill-opacity:0;stroke:#fca4b5;stroke-width:0.02"
       d="m 361.248,261.396 v 60.786 H 474.312 V 261.396 H 361.248"
       id="path116" />
    <path
       style="fill:#e4405c"
       d="M 361.248,261.396 375.652,248 H 488.66 l -14.348,13.396 z"
       id="path118" />
    <path
       style="fill:none;fill-opacity:0;stroke:#fca4b5;stroke-width:0.02"
       d="M 361.248,261.396 375.652,248 H 488.66 l -14.348,13.396 H 361.248"
       id="path120" />
    <path
       style="fill:#790015"
       d="M 474.312,261.396 488.66,248 v 60.823 l -14.348,13.359 z"
       id="path122" />
    <path
       style="fill:none;fill-opacity:0;stroke:#fca4b5;stroke-width:0.02"
       d="M 474.312,261.396 488.66,248 v 60.823 l -14.348,13.359 v -60.786"
       id="path124" />
    <path
       style="fill:none;fill-opacity:0;stroke:#000000;stroke-width:0.6"
       d="m 392.089,280.016 49.442,21.718"
       id="path126" />
    <path
       style="fill:none;fill-opacity:0;stroke:#000000;stroke-width:0.6"
       d="m 376.659,274.811 h 79.22"
       id="path128" />
    <path
       style="fill:none;fill-opacity:0;stroke:#000000;stroke-width:0.6"
       d="m 376.659,305.876 h 79.22"
       id="path130" />
    <path
       style="fill:#000000"
       d="m 368.412,268.635 h 25.711 v 13.452 h -25.711 z"
       id="path132" />
    <path
       style="fill:none;fill-opacity:0;stroke:#000000;stroke-width:0.02"
       d="m 368.412,268.635 h 25.636 v 13.415 h -25.636 v -13.415"
       id="path134" />
    <path
       style="fill:#000000"
       d="m 438.415,268.635 h 24.666 v 13.452 h -24.666 z"
       id="path136" />
    <path
       style="fill:none;fill-opacity:0;stroke:#000000;stroke-width:0.02"
       d="m 438.415,268.635 h 24.628 v 13.415 h -24.628 v -13.415"
       id="path138" />
    <path
       style="fill:#000000"
       d="m 368.412,299.644 h 25.711 v 13.471 h -25.711 z"
       id="path140" />
    <path
       style="fill:none;fill-opacity:0;stroke:#000000;stroke-width:0.02"
       d="m 368.412,299.644 h 25.636 v 13.415 h -25.636 v -13.415"
       id="path142" />
    <path
       style="fill:#000000"
       d="m 438.415,299.644 h 24.666 v 13.471 h -24.666 z"
       id="path144" />
    <path
       style="fill:none;fill-opacity:0;stroke:#000000;stroke-width:0.02"
       d="m 438.415,299.644 h 24.628 v 13.415 h -24.628 v -13.415"
       id="path146" />
    <path
       style="fill:none;fill-opacity:0;stroke:#000000;stroke-width:0.6"
       d="m 440.468,280.016 -49.443,21.718"
       id="path148" />
    <path
       style="fill:none;fill-opacity:0;stroke:#ffffff;stroke-width:0.6"
       d="m 393.115,281.024 49.386,21.754"
       id="path150" />
    <path
       style="fill:none;fill-opacity:0;stroke:#ffffff;stroke-width:0.6"
       d="m 377.685,275.856 h 79.201"
       id="path152" />
    <path
       style="fill:none;fill-opacity:0;stroke:#ffffff;stroke-width:0.6"
       d="m 377.685,306.92 h 79.201"
       id="path154" />
    <path
       style="fill:#ffffff"
       d="m 369.476,269.643 h 25.71 v 13.452 h -25.71 z"
       id="path156" />
    <path
       style="fill:none;fill-opacity:0;stroke:#ffffff;stroke-width:0.02"
       d="m 369.476,269.643 h 25.635 v 13.414 h -25.635 v -13.414"
       id="path158" />
    <path
       style="fill:#ffffff"
       d="m 439.442,269.643 h 24.683 v 13.452 h -24.683 z"
       id="path160" />
    <path
       style="fill:none;fill-opacity:0;stroke:#ffffff;stroke-width:0.02"
       d="m 439.442,269.643 h 24.646 v 13.414 h -24.646 v -13.414"
       id="path162" />
    <path
       style="fill:#ffffff"
       d="m 369.476,300.707 h 25.71 v 13.453 h -25.71 z"
       id="path164" />
    <path
       style="fill:none;fill-opacity:0;stroke:#ffffff;stroke-width:0.02"
       d="m 369.476,300.707 h 25.635 v 13.397 h -25.635 v -13.397"
       id="path166" />
    <path
       style="fill:#ffffff"
       d="m 439.442,300.707 h 24.683 v 13.453 h -24.683 z"
       id="path168" />
    <path
       style="fill:none;fill-opacity:0;stroke:#ffffff;stroke-width:0.02"
       d="m 439.442,300.707 h 24.646 v 13.397 h -24.646 v -13.397"
       id="path170" />
    <path
       style="fill:none;fill-opacity:0;stroke:#ffffff;stroke-width:0.6"
       d="m 441.531,281.024 -49.442,21.754"
       id="path172" />
  </g>
  <g
     id="g240"
     transform="translate(-94.699236,-12.503279)">
    <path
       style="fill:#0078aa"
       d="m 209.666,398.728 -0.059,-0.808 -0.177,-0.807 -0.296,-0.788 -0.433,-0.788 -0.492,-0.768 -0.67,-0.788 -0.729,-0.748 -0.866,-0.769 -0.985,-0.709 -1.044,-0.728 -1.182,-0.69 -1.28,-0.669 -1.359,-0.65 -1.477,-0.631 -1.596,-0.571 -1.615,-0.591 -1.733,-0.551 -1.793,-0.512 -1.89,-0.473 -1.911,-0.433 -2.029,-0.394 -2.028,-0.355 -2.108,-0.374 -2.186,-0.296 -2.186,-0.256 -2.246,-0.197 -2.245,-0.177 -2.285,-0.138 -2.324,-0.118 -2.285,-0.059 -2.324,-0.039 v 0 l -2.344,0.039 -2.324,0.059 -2.285,0.118 -2.285,0.138 -2.284,0.177 -2.206,0.197 -2.226,0.256 -2.147,0.296 -2.107,0.374 -2.069,0.355 -1.989,0.394 -1.95,0.433 -1.851,0.473 -1.793,0.512 -1.733,0.551 -1.654,0.591 -1.537,0.571 -1.477,0.631 -1.398,0.65 -1.261,0.669 -1.201,0.69 -1.064,0.728 -0.965,0.709 -0.867,0.769 -0.748,0.748 -0.63,0.788 -0.532,0.768 -0.394,0.788 -0.296,0.788 -0.177,0.807 -0.059,0.808 v 0 l 0.059,0.807 0.177,0.808 0.296,0.788 0.394,0.788 0.532,0.807 0.63,0.749 0.748,0.787 0.867,0.729 0.965,0.749 1.064,0.689 1.201,0.709 1.261,0.65 1.398,0.65 1.477,0.63 1.537,0.611 1.654,0.551 1.733,0.552 1.793,0.492 1.851,0.493 1.95,0.433 1.989,0.433 2.069,0.355 2.107,0.335 2.147,0.295 2.226,0.256 2.206,0.237 2.284,0.177 2.285,0.118 2.285,0.138 2.324,0.059 h 2.344 v 0 h 2.324 l 2.285,-0.059 2.324,-0.138 2.285,-0.118 2.245,-0.177 2.246,-0.237 2.186,-0.256 2.186,-0.295 2.108,-0.335 2.028,-0.355 2.029,-0.433 1.911,-0.433 1.89,-0.493 1.793,-0.492 1.733,-0.552 1.615,-0.551 1.596,-0.611 1.477,-0.63 1.359,-0.65 1.28,-0.65 1.182,-0.709 1.044,-0.689 0.985,-0.749 0.866,-0.729 0.729,-0.787 0.67,-0.749 0.492,-0.807 0.433,-0.788 0.296,-0.788 0.177,-0.808 z"
       id="path176" />
    <path
       style="fill:none;fill-opacity:0;stroke:#aae6ff;stroke-width:0.02"
       d="m 209.134,398.472 -0.059,-0.808 -0.177,-0.788 -0.276,-0.748 -0.413,-0.788 -0.512,-0.807 -0.65,-0.729 -0.749,-0.749 -0.867,-0.728 -0.965,-0.729 -1.063,-0.709 -1.162,-0.67 -1.281,-0.67 -1.359,-0.63 -1.477,-0.61 -1.536,-0.611 -1.615,-0.552 -1.734,-0.492 -1.772,-0.532 -1.891,-0.453 -1.93,-0.433 -1.97,-0.433 -2.029,-0.316 -2.107,-0.354 -2.127,-0.296 -2.206,-0.256 -2.226,-0.197 -2.226,-0.216 -2.284,-0.099 -2.285,-0.098 -2.324,-0.079 -2.325,-0.039 v 0 l -2.284,0.039 -2.305,0.079 -2.304,0.098 -2.285,0.099 -2.226,0.216 -2.225,0.197 -2.206,0.256 -2.108,0.296 -2.127,0.354 -2.048,0.316 -1.97,0.433 -1.95,0.433 -1.851,0.453 -1.793,0.532 -1.713,0.492 -1.615,0.552 -1.576,0.611 -1.438,0.61 -1.359,0.63 -1.28,0.67 -1.162,0.67 -1.064,0.709 -0.965,0.729 -0.867,0.728 -0.748,0.749 -0.63,0.729 -0.552,0.807 -0.414,0.788 -0.256,0.748 -0.177,0.788 -0.059,0.808 v 0 l 0.059,0.807 0.177,0.749 0.256,0.788 0.414,0.788 0.552,0.768 0.63,0.768 0.748,0.748 0.867,0.749 0.965,0.689 1.064,0.709 1.162,0.69 1.28,0.63 1.359,0.669 1.438,0.611 1.576,0.611 1.615,0.512 1.713,0.532 1.793,0.512 1.851,0.472 1.95,0.434 1.97,0.413 2.048,0.335 2.127,0.355 2.108,0.295 2.206,0.256 2.225,0.197 2.226,0.177 2.285,0.138 2.304,0.118 2.305,0.06 h 2.284 v 0 h 2.325 l 2.324,-0.06 2.285,-0.118 2.284,-0.138 2.226,-0.177 2.226,-0.197 2.206,-0.256 2.127,-0.295 2.107,-0.355 2.029,-0.335 1.97,-0.413 1.93,-0.434 1.891,-0.472 1.772,-0.512 1.734,-0.532 1.615,-0.512 1.536,-0.611 1.477,-0.611 1.359,-0.669 1.281,-0.63 1.162,-0.69 1.063,-0.709 0.965,-0.689 0.867,-0.749 0.749,-0.748 0.65,-0.768 0.512,-0.768 0.413,-0.788 0.276,-0.788 0.177,-0.749 0.059,-0.807"
       id="path178" />
    <path
       style="fill:#0078aa"
       d="m 117.98,354.451 v 44.572 h 91.135 v -44.572 z"
       id="path180" />
    <path
       style="fill:#00b4ff"
       d="m 209.666,354.155 -0.059,-0.807 -0.177,-0.808 -0.296,-0.788 -0.433,-0.807 -0.492,-0.788 -0.67,-0.749 -0.729,-0.787 -0.866,-0.729 -0.985,-0.749 -1.044,-0.689 -1.182,-0.709 -1.28,-0.65 -1.359,-0.67 -1.477,-0.61 -1.596,-0.611 -1.615,-0.551 -1.733,-0.572 -1.793,-0.492 -1.89,-0.473 -1.911,-0.453 -2.029,-0.413 -2.028,-0.355 -2.108,-0.335 -2.186,-0.295 -2.186,-0.256 -2.246,-0.237 -2.245,-0.177 -2.285,-0.138 -2.324,-0.118 -2.285,-0.059 h -2.324 v 0 h -2.344 l -2.324,0.059 -2.285,0.118 -2.285,0.138 -2.284,0.177 -2.206,0.237 -2.226,0.256 -2.147,0.295 -2.107,0.335 -2.069,0.355 -1.989,0.413 -1.95,0.453 -1.851,0.473 -1.793,0.492 -1.733,0.572 -1.654,0.551 -1.537,0.611 -1.477,0.61 -1.398,0.67 -1.261,0.65 -1.201,0.709 -1.064,0.689 -0.965,0.749 -0.867,0.729 -0.748,0.787 -0.63,0.749 -0.532,0.788 -0.394,0.807 -0.296,0.788 -0.177,0.808 -0.059,0.807 v 0 l 0.059,0.788 0.177,0.808 0.296,0.807 0.394,0.788 0.532,0.768 0.63,0.788 0.748,0.748 0.867,0.769 0.965,0.709 1.064,0.728 1.201,0.69 1.261,0.65 1.398,0.669 1.477,0.631 1.537,0.571 1.654,0.591 1.733,0.551 1.793,0.493 1.851,0.492 1.95,0.433 1.989,0.394 2.069,0.355 2.107,0.374 2.147,0.296 2.226,0.256 2.206,0.197 2.284,0.177 2.285,0.138 2.285,0.118 2.324,0.059 2.344,0.039 v 0 l 2.324,-0.039 2.285,-0.059 2.324,-0.118 2.285,-0.138 2.245,-0.177 2.246,-0.197 2.186,-0.256 2.186,-0.296 2.108,-0.374 2.028,-0.355 2.029,-0.394 1.911,-0.433 1.89,-0.492 1.793,-0.493 1.733,-0.551 1.615,-0.591 1.596,-0.571 1.477,-0.631 1.359,-0.669 1.28,-0.65 1.182,-0.69 1.044,-0.728 0.985,-0.709 0.866,-0.769 0.729,-0.748 0.67,-0.788 0.492,-0.768 0.433,-0.788 0.296,-0.807 0.177,-0.808 z"
       id="path182" />
    <path
       style="fill:none;fill-opacity:0;stroke:#aae6ff;stroke-width:0.56"
       d="m 209.134,353.899 -0.059,-0.788 -0.177,-0.807 -0.276,-0.749 -0.413,-0.788 -0.512,-0.787 -0.65,-0.749 -0.749,-0.748 -0.867,-0.729 -0.965,-0.729 -1.063,-0.689 -1.162,-0.69 -1.281,-0.669 -1.359,-0.65 -1.477,-0.611 -1.536,-0.591 -1.615,-0.551 -1.734,-0.493 -1.772,-0.531 -1.891,-0.453 -1.93,-0.434 -1.97,-0.413 -2.029,-0.375 -2.107,-0.315 -2.127,-0.295 -2.206,-0.256 -2.226,-0.217 -2.226,-0.197 -2.284,-0.118"
       id="path184" />
    <path
       style="fill:none;fill-opacity:0;stroke:#aae6ff;stroke-width:0.56"
       d="m 156.644,338.477 -2.285,0.118 -2.226,0.197 -2.225,0.217 -2.206,0.256 -2.108,0.295 -2.127,0.315 -2.048,0.375 -1.97,0.413 -1.95,0.434 -1.851,0.453 -1.793,0.531 -1.713,0.493 -1.615,0.551 -1.576,0.591 -1.438,0.611 -1.359,0.65 -1.28,0.669 -1.162,0.69 -1.064,0.689 -0.965,0.729 -0.867,0.729 -0.748,0.748 -0.63,0.749 -0.552,0.787 -0.414,0.788 -0.256,0.749 -0.177,0.807 -0.059,0.788 v 0 l 0.059,0.808 0.177,0.788 0.256,0.748 0.414,0.808 0.552,0.748 0.63,0.788 0.748,0.729 0.867,0.709 0.965,0.728 1.064,0.729 1.162,0.67 1.28,0.67 1.359,0.63 1.438,0.61 1.576,0.572 1.615,0.59 1.713,0.493 1.793,0.512 1.851,0.473 1.95,0.433 1.97,0.394 2.048,0.374 2.127,0.335 2.108,0.315 2.206,0.256 2.225,0.177 2.226,0.197 2.285,0.119 2.304,0.118 2.305,0.059 2.284,0.02 v 0 l 2.325,-0.02 2.324,-0.059 2.285,-0.118 2.284,-0.119 2.226,-0.197 2.226,-0.177 2.206,-0.256 2.127,-0.315 2.107,-0.335 2.029,-0.374 1.97,-0.394 1.93,-0.433 1.891,-0.473 1.772,-0.512 1.734,-0.493 1.615,-0.59 1.536,-0.572 1.477,-0.61 1.359,-0.63 1.281,-0.67 1.162,-0.67 1.063,-0.729 0.965,-0.728 0.867,-0.709 0.749,-0.729 0.65,-0.788 0.512,-0.748 0.413,-0.808 0.276,-0.748 0.177,-0.788 0.059,-0.808"
       id="path186" />
    <path
       style="fill:#000000"
       d="m 164.64,350.531 6.697,2.265 16.072,-6.716 7.268,2.225 -3.9,-5.534 h -18.928 l 7.8,1.654 z"
       id="path188" />
    <path
       style="fill:#000000"
       d="m 161.863,356.676 -6.657,-2.225 -15.56,6.677 -7.78,-2.226 3.9,6.145 h 19.44 l -8.312,-2.225 z"
       id="path190" />
    <path
       style="fill:#000000"
       d="m 133.54,344.425 6.657,-2.225 16.132,6.105 7.208,-1.654 -3.899,5.554 h -18.869 l 7.78,-1.674 z"
       id="path192" />
    <path
       style="fill:#000000"
       d="m 193.555,363.393 -6.658,2.206 -15.56,-6.697 -7.8,2.226 3.881,-5.555 h 19.479 l -8.351,1.655 z"
       id="path194" />
    <path
       style="fill:#ffffff"
       d="m 165.231,351.102 6.618,2.246 16.151,-6.697 7.229,2.226 -3.9,-5.594 H 172.44 l 7.761,1.694 z"
       id="path196" />
    <path
       style="fill:#ffffff"
       d="m 162.434,357.228 -6.677,-2.206 -15.56,6.657 -7.76,-2.226 3.88,6.146 h 19.44 l -8.351,-2.206 z"
       id="path198" />
    <path
       style="fill:#ffffff"
       d="m 134.092,344.977 6.677,-2.206 16.111,6.106 7.209,-1.675 -3.88,5.594 H 141.3 l 7.82,-1.694 z"
       id="path200" />
    <path
       style="fill:#ffffff"
       d="m 194.106,363.944 -6.697,2.206 -15.56,-6.697 -7.76,2.226 3.88,-5.554 h 19.44 l -8.311,1.654 z"
       id="path202" />
    <path
       style="fill:none;fill-opacity:0;stroke:#aae6ff;stroke-width:0.56"
       d="m 117.98,353.899 v 45.124"
       id="path204" />
    <path
       style="fill:none;fill-opacity:0;stroke:#aae6ff;stroke-width:0.56"
       d="m 209.115,353.899 v 45.676"
       id="path206" />
    <path
       style="fill:none;fill-opacity:0;stroke:#ffffff;stroke-width:1.68"
       d="m 152.685,376.491 2.462,0.118 2.482,0.079 2.501,0.019 h 2.521 l 2.462,-0.039 2.482,-0.098 2.442,-0.138 2.462,-0.158 2.403,-0.217 2.364,-0.236 2.324,-0.315 2.285,-0.295 2.225,-0.375 2.206,-0.413 2.088,-0.453 2.068,-0.434 1.931,-0.531 1.91,-0.552 1.773,-0.571 1.674,-0.552 1.615,-0.63 1.517,-0.67 1.418,-0.669 1.3,-0.69"
       id="path208" />
    <path
       style="fill:none;fill-opacity:0;stroke:#ffffff;stroke-width:1.68"
       d="m 152.626,382.085 2.521,0.078 2.462,0.079 2.521,0.039 h 2.462 l 2.482,-0.059 2.501,-0.059 2.423,-0.138 2.501,-0.177 2.364,-0.217 2.383,-0.256 2.344,-0.275 2.285,-0.335 2.225,-0.374 2.187,-0.375 2.087,-0.453 2.049,-0.472 1.97,-0.493 1.89,-0.571 1.793,-0.551 1.674,-0.591 1.615,-0.631 1.517,-0.63 1.418,-0.709 1.3,-0.689"
       id="path210" />
    <path
       style="fill:none;fill-opacity:0;stroke:#ffffff;stroke-width:1.68"
       d="m 152.685,387.639 2.462,0.079 2.482,0.098 2.501,0.02 h 2.462 l 2.521,-0.059 2.482,-0.079 2.442,-0.118 2.462,-0.178 2.403,-0.196 2.364,-0.237 2.324,-0.315 2.285,-0.315 2.225,-0.374 2.187,-0.414 2.087,-0.433 2.049,-0.473 1.97,-0.492 1.89,-0.552 1.793,-0.571 1.674,-0.571 1.615,-0.65 1.517,-0.67 1.398,-0.63 1.32,-0.729"
       id="path212" />
    <path
       style="fill:none;fill-opacity:0;stroke:#ffffff;stroke-width:1.68"
       d="m 152.626,393.193 2.521,0.118 2.462,0.099 2.521,0.02 h 2.462 l 2.482,-0.06 2.501,-0.078 2.423,-0.119 2.501,-0.177 2.364,-0.236 2.383,-0.236 2.344,-0.276 2.285,-0.315 2.225,-0.394 2.187,-0.394 2.087,-0.434 2.049,-0.492 1.97,-0.492 1.89,-0.552 1.793,-0.551 1.674,-0.611 1.615,-0.611 1.517,-0.669 1.418,-0.67 1.3,-0.709"
       id="path214" />
    <path
       style="fill:none;fill-opacity:0;stroke:#ffffff;stroke-width:1.68"
       d="m 152.685,398.767 2.462,0.099 2.482,0.098 2.501,0.02 h 2.462 l 2.521,-0.059 2.482,-0.079 2.442,-0.118 2.462,-0.177 2.403,-0.197 2.364,-0.256 2.324,-0.296 2.285,-0.315 2.225,-0.374 2.187,-0.434 2.087,-0.413 2.049,-0.453 1.97,-0.532 1.89,-0.551 1.793,-0.572 1.674,-0.591 1.615,-0.63 1.517,-0.63 1.398,-0.67 1.32,-0.689"
       id="path216" />
    <path
       style="fill:none;fill-opacity:0;stroke:#000000;stroke-width:1.68"
       d="m 152.626,375.939 2.521,0.118 2.462,0.079 2.521,0.059 h 2.462 l 2.482,-0.059 2.501,-0.118 2.423,-0.138 2.501,-0.157 2.364,-0.217 2.383,-0.236 2.344,-0.296 2.285,-0.315 2.225,-0.374 2.187,-0.414 2.087,-0.453 2.049,-0.433 1.97,-0.532 1.89,-0.551 1.793,-0.572 1.674,-0.551 1.615,-0.63 1.517,-0.67 1.418,-0.67 1.3,-0.689"
       id="path218" />
    <path
       style="fill:none;fill-opacity:0;stroke:#000000;stroke-width:1.68"
       d="m 152.685,381.494 2.462,0.118 2.482,0.079 2.501,0.039 h 2.462 l 2.521,-0.059 2.482,-0.079 2.442,-0.118 2.462,-0.177 2.403,-0.237 2.364,-0.256 2.324,-0.295 2.285,-0.315 2.225,-0.375 2.187,-0.374 2.087,-0.473 2.049,-0.453 1.97,-0.492 1.89,-0.551 1.793,-0.552 1.674,-0.611 1.615,-0.61 1.517,-0.67 1.398,-0.669 1.32,-0.69"
       id="path220" />
    <path
       style="fill:none;fill-opacity:0;stroke:#000000;stroke-width:1.68"
       d="m 152.626,387.087 2.521,0.119 2.462,0.059 2.521,0.059 h 2.462 l 2.482,-0.059 2.501,-0.119 2.423,-0.118 2.501,-0.138 2.364,-0.236 2.383,-0.236 2.344,-0.315 2.285,-0.316 2.225,-0.354 2.187,-0.433 2.087,-0.434 2.049,-0.472 1.97,-0.493 1.89,-0.532 1.793,-0.591 1.674,-0.571 1.615,-0.65 1.517,-0.63 1.418,-0.689 1.3,-0.709"
       id="path222" />
    <path
       style="fill:none;fill-opacity:0;stroke:#000000;stroke-width:1.68"
       d="m 152.685,392.622 2.462,0.118 2.482,0.079 2.501,0.059 h 2.462 l 2.521,-0.059 2.482,-0.118 2.442,-0.118 2.462,-0.138 2.403,-0.237 2.364,-0.256 2.324,-0.295 2.285,-0.315 2.225,-0.374 2.187,-0.414 2.087,-0.433 2.049,-0.453 1.97,-0.493 1.89,-0.551 1.793,-0.591 1.674,-0.571 1.615,-0.631 1.517,-0.669 1.398,-0.67 1.32,-0.689"
       id="path224" />
    <path
       style="fill:none;fill-opacity:0;stroke:#000000;stroke-width:1.68"
       d="m 152.685,398.216 2.462,0.118 2.482,0.079 2.501,0.019 h 2.521 l 2.462,-0.059 2.482,-0.078 2.442,-0.119 2.462,-0.177 2.403,-0.197 2.364,-0.256 2.324,-0.295 2.285,-0.316 2.225,-0.374 2.206,-0.413 2.088,-0.434 2.068,-0.453 1.931,-0.531 1.91,-0.513 1.773,-0.59 1.674,-0.611 1.615,-0.63 1.517,-0.631 1.418,-0.669 1.3,-0.69"
       id="path226" />
    <path
       style="fill:none;fill-opacity:0;stroke:#ffffff;stroke-width:1.68"
       d="m 152.685,404.322 2.462,0.118 2.482,0.079 2.501,0.039 h 2.521 l 2.462,-0.059 2.482,-0.059 2.442,-0.118 2.462,-0.178 2.403,-0.197 2.364,-0.256 2.324,-0.335 2.285,-0.315 2.225,-0.374 2.206,-0.374 2.088,-0.433 2.068,-0.493 1.931,-0.492 1.91,-0.552 1.773,-0.551 1.674,-0.631 1.615,-0.61 1.517,-0.67 1.418,-0.669 1.3,-0.69"
       id="path228" />
    <path
       style="fill:none;fill-opacity:0;stroke:#000000;stroke-width:1.68"
       d="m 152.626,403.79 2.521,0.098 2.462,0.118 h 2.521 2.462 l 2.482,-0.059 2.501,-0.059 2.423,-0.118 2.501,-0.197 2.364,-0.217 2.383,-0.216 2.344,-0.335 2.285,-0.315 2.225,-0.374 2.187,-0.375 2.087,-0.433 2.049,-0.492 1.97,-0.493 1.89,-0.551 1.793,-0.552 1.674,-0.61 1.615,-0.631 1.517,-0.669 1.418,-0.631 1.3,-0.728"
       id="path230" />
    <path
       style="fill:none;fill-opacity:0;stroke:#ffffff;stroke-width:1.68"
       d="m 152.626,409.915 2.521,0.119 2.462,0.078 2.521,0.04 h 2.462 l 2.482,-0.059 2.501,-0.099 2.423,-0.118 2.501,-0.177 2.364,-0.197 2.383,-0.256 2.344,-0.315 2.285,-0.296 2.225,-0.374 2.187,-0.414 2.087,-0.433 2.049,-0.453 1.97,-0.493 1.89,-0.551 1.793,-0.591 1.674,-0.571 1.615,-0.63 1.517,-0.67 1.418,-0.67 1.3,-0.689"
       id="path232" />
    <path
       style="fill:none;fill-opacity:0;stroke:#000000;stroke-width:1.68"
       d="m 152.685,409.364 2.462,0.079 2.482,0.118 2.501,0.039 h 2.462 l 2.521,-0.098 2.482,-0.079 2.442,-0.118 2.462,-0.178 2.403,-0.196 2.364,-0.237 2.324,-0.315 2.285,-0.295 2.225,-0.394 2.187,-0.414 2.087,-0.433 2.049,-0.434 1.97,-0.531 1.89,-0.552 1.793,-0.571 1.674,-0.571 1.615,-0.65 1.517,-0.631 1.398,-0.669 1.32,-0.69"
       id="path234" />
    <path
       style="fill:#0078aa"
       d="m 202.989,365.599 v 36.753 l 5.023,-2.777 v -36.753 z"
       id="path236" />
    <path
       style="fill:#0078aa"
       d="m 148.549,371.744 v 39.53 h 4.983 v -39.53 z"
       id="path238" />
  </g>
  <g
     id="g372"
     transform="translate(-94.699236,-12.503279)">
    <path
       style="fill:#00b4ff"
       d="m 402.75,365.206 14.404,-13.359 h 113.008 l -14.348,13.359 z"
       id="path308" />
    <path
       style="fill:none;fill-opacity:0;stroke:#aae6ff;stroke-width:0.02"
       d="m 402.75,365.206 14.404,-13.359 h 113.008 l -14.348,13.359 H 402.75"
       id="path310" />
    <path
       style="fill:#cf0e30"
       d="m 402.75,304.42 v 60.786 H 515.814 V 304.42 Z"
       id="path312" />
    <path
       style="fill:none;fill-opacity:0;stroke:#fca4b5;stroke-width:0.02"
       d="m 402.75,304.42 v 60.786 H 515.814 V 304.42 H 402.75"
       id="path314" />
    <path
       style="fill:#e4405c"
       d="m 402.75,304.42 14.404,-13.396 h 113.008 l -14.348,13.396 z"
       id="path316" />
    <path
       style="fill:none;fill-opacity:0;stroke:#fca4b5;stroke-width:0.02"
       d="m 402.75,304.42 14.404,-13.396 H 530.162 L 515.814,304.42 H 402.75"
       id="path318" />
    <path
       style="fill:#790015"
       d="m 515.814,304.42 14.348,-13.396 v 60.823 l -14.348,13.359 z"
       id="path320" />
    <path
       style="fill:none;fill-opacity:0;stroke:#fca4b5;stroke-width:0.02"
       d="m 515.814,304.42 14.348,-13.396 v 60.823 l -14.348,13.359 V 304.42"
       id="path322" />
    <path
       style="fill:none;fill-opacity:0;stroke:#000000;stroke-width:0.6"
       d="m 433.591,323.04 49.442,21.718"
       id="path324" />
    <path
       style="fill:none;fill-opacity:0;stroke:#000000;stroke-width:0.6"
       d="m 418.161,317.835 h 79.22"
       id="path326" />
    <path
       style="fill:none;fill-opacity:0;stroke:#000000;stroke-width:0.6"
       d="m 418.161,348.9 h 79.22"
       id="path328" />
    <path
       style="fill:#000000"
       d="m 409.914,311.659 h 25.711 v 13.452 h -25.711 z"
       id="path330" />
    <path
       style="fill:none;fill-opacity:0;stroke:#000000;stroke-width:0.02"
       d="m 409.914,311.659 h 25.636 v 13.415 h -25.636 v -13.415"
       id="path332" />
    <path
       style="fill:#000000"
       d="m 479.917,311.659 h 24.666 v 13.452 h -24.666 z"
       id="path334" />
    <path
       style="fill:none;fill-opacity:0;stroke:#000000;stroke-width:0.02"
       d="m 479.917,311.659 h 24.628 v 13.415 h -24.628 v -13.415"
       id="path336" />
    <path
       style="fill:#000000"
       d="m 409.914,342.668 h 25.711 v 13.471 h -25.711 z"
       id="path338" />
    <path
       style="fill:none;fill-opacity:0;stroke:#000000;stroke-width:0.02"
       d="m 409.914,342.668 h 25.636 v 13.415 h -25.636 v -13.415"
       id="path340" />
    <path
       style="fill:#000000"
       d="m 479.917,342.668 h 24.666 v 13.471 h -24.666 z"
       id="path342" />
    <path
       style="fill:none;fill-opacity:0;stroke:#000000;stroke-width:0.02"
       d="m 479.917,342.668 h 24.628 v 13.415 h -24.628 v -13.415"
       id="path344" />
    <path
       style="fill:none;fill-opacity:0;stroke:#000000;stroke-width:0.6"
       d="m 481.97,323.04 -49.443,21.718"
       id="path346" />
    <path
       style="fill:none;fill-opacity:0;stroke:#ffffff;stroke-width:0.6"
       d="m 434.617,324.048 49.386,21.754"
       id="path348" />
    <path
       style="fill:none;fill-opacity:0;stroke:#ffffff;stroke-width:0.6"
       d="m 419.187,318.88 h 79.201"
       id="path350" />
    <path
       style="fill:none;fill-opacity:0;stroke:#ffffff;stroke-width:0.6"
       d="m 419.187,349.944 h 79.201"
       id="path352" />
    <path
       style="fill:#ffffff"
       d="m 410.978,312.667 h 25.71 v 13.452 h -25.71 z"
       id="path354" />
    <path
       style="fill:none;fill-opacity:0;stroke:#ffffff;stroke-width:0.02"
       d="m 410.978,312.667 h 25.635 v 13.414 h -25.635 v -13.414"
       id="path356" />
    <path
       style="fill:#ffffff"
       d="m 480.944,312.667 h 24.683 v 13.452 h -24.683 z"
       id="path358" />
    <path
       style="fill:none;fill-opacity:0;stroke:#ffffff;stroke-width:0.02"
       d="m 480.944,312.667 h 24.646 v 13.414 h -24.646 v -13.414"
       id="path360" />
    <path
       style="fill:#ffffff"
       d="m 410.978,343.731 h 25.71 v 13.453 h -25.71 z"
       id="path362" />
    <path
       style="fill:none;fill-opacity:0;stroke:#ffffff;stroke-width:0.02"
       d="m 410.978,343.731 h 25.635 v 13.397 h -25.635 v -13.397"
       id="path364" />
    <path
       style="fill:#ffffff"
       d="m 480.944,343.731 h 24.683 v 13.453 h -24.683 z"
       id="path366" />
    <path
       style="fill:none;fill-opacity:0;stroke:#ffffff;stroke-width:0.02"
       d="m 480.944,343.731 h 24.646 v 13.397 h -24.646 v -13.397"
       id="path368" />
    <path
       style="fill:none;fill-opacity:0;stroke:#ffffff;stroke-width:0.6"
       d="m 483.033,324.048 -49.442,21.754"
       id="path370" />
  </g>
  <g
     id="g400"
     transform="translate(-94.699236,-12.503279)">
    <path
       style="fill:#ffd255"
       d="m 359.473,48.174 0.488,0.4663 -2.077,3.0412 v 1.1656 l 2.755,1.6425 0.933,-0.2332 1.833,-3.7511 0.689,0.4662 6.442,-12.8643 v 18.7242 h 1.378 l -7.82,26.6822 1.165,0.9431 -3.931,0.6994 -2.522,1.8756 v 2.0981 h 11.963 l 0.223,-1.865 -0.223,-1.4093 1.378,-0.2331 6.665,-20.8329 6.687,20.8329 1.377,0.2331 -0.243,1.6425 0.466,1.6318 h 11.741 v -2.0981 l -2.543,-1.8756 -3.91,-0.6994 0.932,-0.9431 -7.608,-26.6822 h 1.388 V 38.1072 l 6.22,13.108 0.699,-0.7099 1.823,3.7511 1.166,0.2332 2.744,-1.6425 v -1.1656 l -2.066,-3.0412 0.466,-0.4663 -9.897,-19.9004 h -5.744 l -1.843,-1.8756 h -4.377 l -1.61,1.8756 h -5.288 z"
       id="path388" />
    <path
       style="fill:#ffd255"
       d="m 359.728,48.3965 0.455,0.4769 -2.066,3.0412 v 1.1762 l 2.745,1.6319 0.922,-0.2331 1.854,-3.7512 0.678,0.4768 6.453,-12.8748 v 18.7241 h 1.378 l -7.831,26.6929 1.155,0.9325 -3.899,0.7099 -2.554,1.865 v 2.1088 h 11.974 l 0.233,-1.8756 -0.233,-1.4094 1.388,-0.2331 6.676,-20.8223 6.655,20.8223 1.388,0.2331 -0.223,1.6425 0.456,1.6425 h 11.741 v -2.1088 l -2.533,-1.865 -3.91,-0.7099 0.922,-0.9325 -7.587,-26.6929 h 1.367 V 38.3404 l 6.22,13.108 0.689,-0.71 1.844,3.7512 1.144,0.2331 2.766,-1.6319 v -1.1762 l -2.077,-3.0412 0.466,-0.4769 -9.897,-19.9004 h -5.765 l -1.833,-1.8544 h -4.366 l -1.621,1.8544 h -5.298 z"
       id="path390" />
    <path
       style="fill:none;fill-opacity:0;stroke:#805d00;stroke-width:0.02"
       d="m 359.728,48.3965 0.455,0.4769 -2.066,3.0412 v 1.1762 l 2.745,1.6319 0.922,-0.2331 1.854,-3.7512 0.678,0.4768 6.453,-12.8748 v 18.7241 h 1.378 l -7.831,26.6929 1.155,0.9325 -3.899,0.7099 -2.554,1.865 v 2.1088 h 11.974 l 0.233,-1.8756 -0.233,-1.4094 1.388,-0.2331 6.676,-20.8223 6.655,20.8223 1.388,0.2331 -0.223,1.6425 0.456,1.6425 h 11.741 v -2.1088 l -2.533,-1.865 -3.91,-0.7099 0.922,-0.9325 -7.587,-26.6929 h 1.367 V 38.3404 l 6.22,13.108 0.689,-0.71 1.844,3.7512 1.144,0.2331 2.766,-1.6319 v -1.1762 l -2.077,-3.0412 0.466,-0.4769 -9.897,-19.9004 h -5.765 l -1.833,-1.8544 h -4.366 l -1.621,1.8544 h -5.298 l -9.876,19.9004"
       id="path392" />
    <path
       style="fill:#ffd255"
       d="m 379.978,14 h -2.533 l -1.155,0.2225 -1.854,1.6425 -0.212,1.6425 v 2.0981 l -0.244,0.9431 v 0.9325 l 1.155,4.2068 1.155,1.1763 2.522,0.4662 2.31,-0.4662 1.134,-1.1763 0.933,-2.8081 0.455,-1.3987 v -0.9325 l -0.455,-0.9431 v -2.0981 l -0.212,-1.6425 -1.855,-1.6425 z"
       id="path394" />
    <path
       style="fill:#ffd255"
       d="m 380.2,14.2225 h -2.532 l -1.145,0.2332 -1.843,1.6318 -0.244,1.6425 v 2.1087 l -0.212,0.9325 v 0.9431 l 1.144,4.2069 1.155,1.1868 2.533,0.4662 2.31,-0.4662 1.144,-1.1868 0.912,-2.8081 0.466,-1.3988 v -0.9431 l -0.466,-0.9325 V 17.73 l -0.233,-1.6425 -1.823,-1.6318 z"
       id="path396" />
    <path
       style="fill:none;fill-opacity:0;stroke:#805d00;stroke-width:0.02"
       d="m 380.2,14.2225 h -2.532 l -1.145,0.2332 -1.843,1.6318 -0.244,1.6425 v 2.1087 l -0.212,0.9325 v 0.9431 l 1.144,4.2069 1.155,1.1868 2.533,0.4662 2.31,-0.4662 1.144,-1.1868 0.912,-2.8081 0.466,-1.3988 v -0.9431 l -0.466,-0.9325 V 17.73 l -0.233,-1.6425 -1.823,-1.6318 -1.166,-0.2332"
       id="path398" />
  </g>
  <g
     id="g480"
     transform="translate(-94.699236,-12.503279)">
    <line
       style="fill:none;fill-opacity:0;stroke:#ffa500;stroke-width:2.8"
       x1="399.99399"
       y1="51.6814"
       x2="422.103"
       y2="92.640297"
       id="line474" />
    <polygon
       style="fill:#ffa500"
       points="416.516,92.8154 422.103,92.6403 425.315,88.0654 425.666,99.2402 "
       id="polygon476" />
    <polygon
       style="fill:none;fill-opacity:0;stroke:#ffa500;stroke-width:2.8"
       points="416.516,92.8154 422.103,92.6403 425.315,88.0654 425.666,99.2402 "
       id="polygon478" />
  </g>
  <g
     id="g488"
     transform="translate(-94.699236,-12.503279)">
    <path
       style="fill:none;fill-opacity:0;stroke:#ffa500;stroke-width:2.8"
       d="M 423.555,198.679 A 128.684,128.684 0 0 0 416.794,237.4"
       id="path482" />
    <polygon
       style="fill:#ffa500"
       points="411.209,235.211 416.356,237.391 421.189,234.582 416.828,244.876 "
       id="polygon484" />
    <polygon
       style="fill:none;fill-opacity:0;stroke:#ffa500;stroke-width:2.8"
       points="411.209,235.211 416.356,237.391 421.189,234.582 416.828,244.876 "
       id="polygon486" />
  </g>
  <g
     id="g496"
     transform="translate(-94.699236,-12.503279)">
    <path
       style="fill:none;fill-opacity:0;stroke:#ffa500;stroke-width:2.8"
       d="m 447.338,198.669 a 338.435,338.435 0 0 0 6.069,81.979"
       id="path490" />
    <polygon
       style="fill:#ffa500"
       points="447.809,279.37 453.243,280.68 457.552,277.119 454.931,287.987 "
       id="polygon492" />
    <polygon
       style="fill:none;fill-opacity:0;stroke:#ffa500;stroke-width:2.8"
       points="447.809,279.37 453.243,280.68 457.552,277.119 454.931,287.987 "
       id="polygon494" />
  </g>
  <g
     id="g504"
     transform="translate(-94.699236,-12.503279)">
    <line
       style="fill:none;fill-opacity:0;stroke:#ffa500;stroke-width:2.8"
       x1="463.272"
       y1="198.685"
       x2="488.21799"
       y2="316.72299"
       id="line498" />
    <polygon
       style="fill:#ffa500"
       points="482.809,315.311 488.218,316.723 492.593,313.243 489.769,324.061 "
       id="polygon500" />
    <polygon
       style="fill:none;fill-opacity:0;stroke:#ffa500;stroke-width:2.8"
       points="482.809,315.311 488.218,316.723 492.593,313.243 489.769,324.061 "
       id="polygon502" />
  </g>
  <g
     id="g580"
     transform="translate(-94.699236,-12.503279)">
    <line
       style="fill:none;fill-opacity:0;stroke:#ffa500;stroke-width:2.8"
       x1="361.48099"
       y1="307.302"
       x2="219.37399"
       y2="357.00299"
       id="line574" />
    <polygon
       style="fill:#ffa500"
       points="220.083,351.458 219.374,357.003 223.384,360.898 212.294,359.479 "
       id="polygon576" />
    <polygon
       style="fill:none;fill-opacity:0;stroke:#ffa500;stroke-width:2.8"
       points="220.083,351.458 219.374,357.003 223.384,360.898 212.294,359.479 "
       id="polygon578" />
  </g>
  <g
     id="g588"
     transform="translate(-94.699236,-12.503279)">
    <line
       style="fill:none;fill-opacity:0;stroke:#ffa500;stroke-width:2.8"
       x1="402.74301"
       y1="338.29099"
       x2="219.60001"
       y2="367.517"
       id="line582" />
    <polygon
       style="fill:#ffa500"
       points="221.281,362.186 219.6,367.517 222.857,372.061 212.194,368.699 "
       id="polygon584" />
    <polygon
       style="fill:none;fill-opacity:0;stroke:#ffa500;stroke-width:2.8"
       points="221.281,362.186 219.6,367.517 222.857,372.061 212.194,368.699 "
       id="polygon586" />
  </g>
  <text
     font-size="12.8"
     style="font-style:normal;font-weight:normal;font-size:12.8px;font-family:'Open Sans Condensed';text-anchor:start;fill:#000000"
     x="485.44962"
     y="382.65833"
     id="text618"><tspan
       x="485.44962"
       y="382.65833"
       id="tspan614">Celery</tspan></text>
  <g
     id="g684"
     transform="translate(-94.699236,-12.503279)">
    <path
       style="fill:#00b4ff"
       d="m 434.65,401.306 14.404,-13.359 h 113.008 l -14.348,13.359 z"
       id="path620" />
    <path
       style="fill:none;fill-opacity:0;stroke:#aae6ff;stroke-width:0.02"
       d="m 434.65,401.306 14.404,-13.359 h 113.008 l -14.348,13.359 H 434.65"
       id="path622" />
    <path
       style="fill:#cf0e30"
       d="m 434.65,340.52 v 60.786 H 547.714 V 340.52 Z"
       id="path624" />
    <path
       style="fill:none;fill-opacity:0;stroke:#fca4b5;stroke-width:0.02"
       d="m 434.65,340.52 v 60.786 H 547.714 V 340.52 H 434.65"
       id="path626" />
    <path
       style="fill:#e4405c"
       d="m 434.65,340.52 14.404,-13.396 h 113.008 l -14.348,13.396 z"
       id="path628" />
    <path
       style="fill:none;fill-opacity:0;stroke:#fca4b5;stroke-width:0.02"
       d="m 434.65,340.52 14.404,-13.396 H 562.062 L 547.714,340.52 H 434.65"
       id="path630" />
    <path
       style="fill:#790015"
       d="m 547.714,340.52 14.348,-13.396 v 60.823 l -14.348,13.359 z"
       id="path632" />
    <path
       style="fill:none;fill-opacity:0;stroke:#fca4b5;stroke-width:0.02"
       d="m 547.714,340.52 14.348,-13.396 v 60.823 l -14.348,13.359 V 340.52"
       id="path634" />
    <path
       style="fill:none;fill-opacity:0;stroke:#000000;stroke-width:0.6"
       d="m 465.491,359.14 49.442,21.718"
       id="path636" />
    <path
       style="fill:none;fill-opacity:0;stroke:#000000;stroke-width:0.6"
       d="m 450.061,353.935 h 79.22"
       id="path638" />
    <path
       style="fill:none;fill-opacity:0;stroke:#000000;stroke-width:0.6"
       d="m 450.061,385 h 79.22"
       id="path640" />
    <path
       style="fill:#000000"
       d="m 441.814,347.759 h 25.711 v 13.452 h -25.711 z"
       id="path642" />
    <path
       style="fill:none;fill-opacity:0;stroke:#000000;stroke-width:0.02"
       d="m 441.814,347.759 h 25.636 v 13.415 h -25.636 v -13.415"
       id="path644" />
    <path
       style="fill:#000000"
       d="m 511.817,347.759 h 24.666 v 13.452 h -24.666 z"
       id="path646" />
    <path
       style="fill:none;fill-opacity:0;stroke:#000000;stroke-width:0.02"
       d="m 511.817,347.759 h 24.628 v 13.415 h -24.628 v -13.415"
       id="path648" />
    <path
       style="fill:#000000"
       d="m 441.814,378.768 h 25.711 v 13.471 h -25.711 z"
       id="path650" />
    <path
       style="fill:none;fill-opacity:0;stroke:#000000;stroke-width:0.02"
       d="m 441.814,378.768 h 25.636 v 13.415 h -25.636 v -13.415"
       id="path652" />
    <path
       style="fill:#000000"
       d="m 511.817,378.768 h 24.666 v 13.471 h -24.666 z"
       id="path654" />
    <path
       style="fill:none;fill-opacity:0;stroke:#000000;stroke-width:0.02"
       d="m 511.817,378.768 h 24.628 v 13.415 h -24.628 v -13.415"
       id="path656" />
    <path
       style="fill:none;fill-opacity:0;stroke:#000000;stroke-width:0.6"
       d="m 513.87,359.14 -49.443,21.718"
       id="path658" />
    <path
       style="fill:none;fill-opacity:0;stroke:#ffffff;stroke-width:0.6"
       d="m 466.517,360.148 49.386,21.754"
       id="path660" />
    <path
       style="fill:none;fill-opacity:0;stroke:#ffffff;stroke-width:0.6"
       d="m 451.087,354.98 h 79.201"
       id="path662" />
    <path
       style="fill:none;fill-opacity:0;stroke:#ffffff;stroke-width:0.6"
       d="m 451.087,386.044 h 79.201"
       id="path664" />
    <path
       style="fill:#ffffff"
       d="m 442.878,348.767 h 25.71 v 13.452 h -25.71 z"
       id="path666" />
    <path
       style="fill:none;fill-opacity:0;stroke:#ffffff;stroke-width:0.02"
       d="m 442.878,348.767 h 25.635 v 13.414 h -25.635 v -13.414"
       id="path668" />
    <path
       style="fill:#ffffff"
       d="m 512.844,348.767 h 24.683 v 13.452 h -24.683 z"
       id="path670" />
    <path
       style="fill:none;fill-opacity:0;stroke:#ffffff;stroke-width:0.02"
       d="m 512.844,348.767 h 24.646 v 13.414 h -24.646 v -13.414"
       id="path672" />
    <path
       style="fill:#ffffff"
       d="m 442.878,379.831 h 25.71 v 13.453 h -25.71 z"
       id="path674" />
    <path
       style="fill:none;fill-opacity:0;stroke:#ffffff;stroke-width:0.02"
       d="m 442.878,379.831 h 25.635 v 13.397 h -25.635 v -13.397"
       id="path676" />
    <path
       style="fill:#ffffff"
       d="m 512.844,379.831 h 24.683 v 13.453 h -24.683 z"
       id="path678" />
    <path
       style="fill:none;fill-opacity:0;stroke:#ffffff;stroke-width:0.02"
       d="m 512.844,379.831 h 24.646 v 13.397 h -24.646 v -13.397"
       id="path680" />
    <path
       style="fill:none;fill-opacity:0;stroke:#ffffff;stroke-width:0.6"
       d="m 514.933,360.148 -49.442,21.754"
       id="path682" />
  </g>
  <g
     id="g692"
     transform="translate(-94.699236,-12.503279)">
    <line
       style="fill:none;fill-opacity:0;stroke:#ffa500;stroke-width:2.8"
       x1="434.65201"
       y1="366.54401"
       x2="220.01199"
       y2="374.36301"
       id="line686" />
    <polygon
       style="fill:#ffa500"
       points="222.328,369.275 220.012,374.363 222.692,379.268 212.517,374.636 "
       id="polygon688" />
    <polygon
       style="fill:none;fill-opacity:0;stroke:#ffa500;stroke-width:2.8"
       points="222.328,369.275 220.012,374.363 222.692,379.268 212.517,374.636 "
       id="polygon690" />
  </g>
  <text
     font-size="12.8"
     style="font-style:normal;font-weight:normal;font-size:12.8px;font-family:'Open Sans Condensed';text-anchor:start;fill:#000000"
     x="-34.699238"
     y="347.49667"
     id="text704"><tspan
       x="-34.699238"
       y="347.49667"
       id="tspan702" /></text>
  <g
     id="g2883"
     transform="translate(-175.53947,-19.862459)">
    <g
       transform="translate(124.80304,101.77035)"
       id="g2150">
      <path
         id="path38-0"
         style="fill:#ed1843;fill-opacity:1;fill-rule:nonzero;stroke:none;stroke-width:0.0438384"
         d="m 839.4742,244.29618 h -11.50757 v -1.8228 c 0,-1.41466 -1.14638,-2.56104 -2.5606,-2.56104 h -22.82006 c -1.41423,0 -2.5606,1.14638 -2.5606,2.56104 v 1.8228 h -11.50758 v -11.15687 c 0,-2.604 2.13011,-4.73454 4.73455,-4.73454 h 41.48732 c 2.604,0 4.73454,2.13054 4.73454,4.73454 v 11.15687" />
      <path
         id="path40-9"
         style="fill:#ed1843;fill-opacity:1;fill-rule:nonzero;stroke:none;stroke-width:0.0438384"
         d="m 834.73966,278.27574 h -41.48732 c -2.604,0 -4.73455,-2.13055 -4.73455,-4.73455 v -11.15686 h 11.50758 v 1.82324 c 0,1.41422 1.14637,2.5606 2.5606,2.5606 h 22.82006 c 1.41422,0 2.5606,-1.14638 2.5606,-2.5606 v -1.82324 h 11.50757 v 11.15686 c 0,2.604 -2.13011,4.73455 -4.73454,4.73455" />
      <path
         id="path42"
         style="fill:#ed1843;fill-opacity:1;fill-rule:nonzero;stroke:none;stroke-width:0.0438384"
         d="m 788.51779,259.09426 h 11.50758 v -11.50757 h -11.50758 z" />
      <path
         id="path44-3"
         style="fill:#ed1843;fill-opacity:1;fill-rule:nonzero;stroke:none;stroke-width:0.0438384"
         d="M 827.96663,259.09426 H 839.4742 V 247.58669 H 827.96663 Z" />
    </g>
    <text
       id="text552-6"
       y="405.47079"
       x="908.1427"
       style="font-style:normal;font-weight:normal;font-size:12.8px;font-family:'Open Sans Condensed';text-anchor:start;fill:#000000;stroke-width:1"
       font-size="12.8"><tspan
         id="tspan550-0"
         y="405.47079"
         x="908.1427"
         style="stroke-width:1">Public Cloud</tspan></text>
  </g>
  <g
     transform="translate(301.49527,9.2726503)"
     id="g692-6">
    <g
       id="g2213"
       transform="rotate(-1.7184639,-673.349,1112.7258)">
      <line
         id="line686-2"
         y2="374.36301"
         x2="424.07956"
         y1="366.54401"
         x1="209.43954"
         style="fill:none;fill-opacity:0;stroke:#ffa500;stroke-width:2.8" />
      <polygon
         transform="matrix(-1,0,0,1,644.09155,0)"
         id="polygon688-6"
         points="222.692,379.268 212.517,374.636 222.328,369.275 220.012,374.363 "
         style="fill:#ffa500" />
      <polygon
         transform="matrix(-1,0,0,1,644.09155,0)"
         id="polygon690-1"
         points="222.692,379.268 212.517,374.636 222.328,369.275 220.012,374.363 "
         style="fill:none;fill-opacity:0;stroke:#ffa500;stroke-width:2.8" />
    </g>
  </g>
  <g
     id="g2418"
     transform="matrix(0.0877353,0,0,0.0877353,477.85305,340.192)">
    <path
       id="path849"
       d="M 92.232996,212.35481 C 53.798031,204.13569 25.250183,177.61249 13.606049,139.30419 11.128713,131.15394 10.893634,128.92887 10.816848,112.9038 10.749138,98.773937 11.10025,93.959457 12.640033,87.903797 17.363681,69.326647 25.611715,54.722077 39.232994,40.816387 52.910575,26.853207 65.419766,19.285437 84.948916,13.159297 l 8.78408,-2.7555 203.318444,-0.26652 c 196.3022,-0.2573201 203.46275,-0.2023901 207.5,1.59184 6.14516,2.73101 10.19911,6.56552 13.10381,12.39449 5.35429,10.74468 2.24449,24.23763 -7.25634,31.48416 -4.88758,3.72788 -8.34499,4.77204 -20.16591,6.09024 -4.675,0.52133 -11.1209,1.95073 -14.32423,3.17645 -12.34079,4.72208 -23.37064,16.09453 -28.79477,29.68917 -1.96658,4.9289 -2.33017,7.634563 -2.33017,17.340173 0,9.70561 0.36359,12.41127 2.33017,17.34017 5.42413,13.59464 16.45398,24.96709 28.79477,29.68917 3.20333,1.22572 9.64923,2.65512 14.32423,3.17645 11.82092,1.3182 15.27833,2.36236 20.16591,6.09024 14.91471,11.37583 12.54379,34.68989 -4.38572,43.12622 l -5.17288,2.57775 -201.05365,-0.0795 C 132.15236,213.758 97.652556,213.51375 92.232996,212.35481 Z"
       style="fill:#ebf6cf" />
    <path
       id="path847"
       d="M 91.232996,211.95 C 70.697056,207.54598 52.825249,197.60886 38.686652,182.7331 30.100575,173.69935 25.884275,167.52461 20.25941,155.74652 13.650825,141.90859 11.228281,131.70393 10.563515,114.9038 9.94561,99.287947 11.746645,88.205587 17.186444,74.150757 c 6.407784,-16.55582 22.001708,-36.05507 36.923943,-46.17115 9.197769,-6.23534 23.374299,-12.67465 33.682659,-15.29945 l 8.93995,-2.27636 H 299.233 h 202.5 l 4,2.16237 c 4.73519,2.55981 9.56274,7.47743 12.11166,12.33763 2.51908,4.80331 2.51908,16.19669 0,21 -5.05017,9.62952 -12.04753,13.81377 -25.17842,15.05607 -15.7972,1.49456 -25.98161,6.30012 -35.58372,16.79031 -17.69084,19.32704 -17.69084,48.980203 0,68.307243 9.60211,10.49019 19.78652,15.29575 35.58372,16.79031 10.36659,0.98078 15.27837,2.97868 20.20481,8.21844 5.24089,5.57422 6.80917,9.5674 6.80917,17.33763 0,10.11587 -4.72447,17.85188 -13.94722,22.83763 l -4,2.16237 -201,0.18453 C 109.62247,213.76378 99.314786,213.68313 91.232996,211.95 Z"
       style="fill:#e2f5b5" />
    <path
       id="path845"
       d="M 95.232996,212.77101 C 81.958286,210.57196 67.135406,204.61023 55.232994,196.68308 15.244842,170.05048 -0.679745,116.18856 18.269061,71.659517 31.798222,39.866457 64.085456,15.343437 98.232996,10.924767 104.23142,10.148577 164.71084,9.9100669 303.733,10.114337 c 218.1403,0.32052 199.80522,-0.2715101 207.7548,6.70831 10.87575,9.54904 10.87575,27.61326 0,37.1623 -5.09222,4.47102 -9.00798,5.84859 -19.54288,6.87519 -17.62518,1.71754 -30.2263,8.75969 -39.1469,21.87728 -6.9082,10.15839 -8.8699,16.60895 -8.8699,29.166383 0,12.55743 1.9617,19.00799 8.8699,29.16638 8.9206,13.11759 21.52172,20.15974 39.1469,21.87728 10.5349,1.0266 14.45066,2.40417 19.54288,6.87519 10.87575,9.54904 10.87575,27.61326 0,37.1623 -7.95731,6.9866 10.76991,6.40387 -210.7548,6.55801 -116.36718,0.081 -202.299914,-0.24184 -205.500004,-0.77195 z"
       style="fill:#dbf2a3" />
    <path
       id="path843"
       d="M 98.232996,213.23815 C 74.972606,209.57899 52.840288,198.04814 37.710502,181.70616 26.340752,169.42548 18.035379,154.11636 13.516349,137.10961 11.280688,128.69601 10.927273,125.2736 10.861838,111.4038 10.775208,93.041377 12.474632,84.635417 19.167581,70.320617 32.654094,41.475827 56.243893,21.597007 87.114106,13.062937 l 9.61889,-2.65914 193.500004,-0.18973 c 190.79363,-0.18708 193.37742,-0.16375 184.73599,1.66793 -38.71389,8.20598 -69.42508,37.61853 -78.91898,75.58186 -1.82414,7.29419 -2.24081,11.79332 -2.26343,24.439943 -0.0344,19.21328 2.01884,28.45614 9.88522,44.5 14.92379,30.43779 43.77214,51.52582 77.14595,56.39338 3.43383,0.50082 -75.04729,0.85676 -187.08475,0.8485 -106.15,-0.008 -194.125004,-0.19122 -195.500004,-0.40753 z"
       style="fill:#cee991" />
    <path
       id="path841"
       d="M 94.567126,212.42308 C 70.826216,208.11537 47.954944,194.63326 33.235477,176.26941 8.496088,145.40482 3.354999,101.53208 20.478401,67.403797 c 11.279224,-22.48038 33.225409,-42.41542 55.612175,-50.5159 19.07164,-6.9009301 1.41951,-6.35496 214.142424,-6.62329 187.77547,-0.23686 192.29138,-0.19849 184,1.56362 -18.19675,3.86721 -35.1563,12.79121 -48.95154,25.75797 -14.03143,13.18876 -22.74242,27.43638 -28.68518,46.91721 -2.5055,8.21326 -2.72083,10.29003 -2.7892,26.900393 -0.0651,15.83048 0.20366,19.01644 2.23027,26.43317 10.50542,38.44645 42.21114,67.45188 81.52979,74.58611 5.99284,1.08738 -24.18175,1.30022 -184.33414,1.30022 -152.80404,0 -192.94799,-0.26273 -198.665874,-1.30022 z"
       style="fill:#c2e27a" />
    <path
       id="path839"
       d="M 97.817746,212.79718 C 76.250636,209.65162 56.218998,199.64347 40.670168,184.24528 31.91391,175.57385 26.419196,167.6824 20.673596,155.52641 15.297225,144.1516 12.638993,134.64278 11.181736,121.57287 8.483244,97.370517 14.623381,73.980087 28.9453,53.903797 c 17.514362,-24.55142 43.020306,-39.608 72.7877,-42.96778 5.80258,-0.65492 74.90242,-0.9853401 194.5,-0.93005 155.30332,0.0718 184.4419,0.29799 179,1.3895 -26.09141,5.23329 -50.11906,21.06679 -64.84988,42.73413 -5.49091,8.07649 -12.04248,22.83304 -14.77297,33.2742 -2.25255,8.61351 -2.61782,12.07974 -2.6345,25.000003 -0.0167,12.88926 0.33527,16.33842 2.50088,24.51148 4.75252,17.93607 12.47997,31.53931 25.79441,45.40794 15.11648,15.74568 31.85479,25.10749 52.96206,29.62189 8.32323,1.78016 4.55915,1.81689 -181,1.76639 -104.225,-0.0284 -192.16186,-0.43982 -195.415254,-0.91432 z"
       style="fill:#b4dc63" />
    <path
       id="path837"
       d="m 99.501966,212.83968 c -14.1593,-1.8418 -29.14985,-7.18894 -41.268972,-14.72067 -11.603319,-7.21117 -27.158432,-23.02751 -33.40424,-33.96521 -0.569966,-0.99813 37.764982,-1.25 190.250206,-1.25 h 190.964 l 2.49996,4.25 c 4.4629,7.58705 15.30781,19.31284 23.73514,25.66302 12.99906,9.79508 27.83358,16.56234 42.95494,19.59531 5.43253,1.08963 -24.37466,1.29835 -181.5,1.2709 -103.4,-0.0181 -190.80396,-0.39757 -194.231034,-0.84335 z M 10.661146,105.1538 c 1.395166,-14.244003 5.02277,-27.618253 10.37485,-38.250003 l 2.768729,-5.5 190.714145,-0.25257 c 104.89277,-0.13891 190.71413,-0.0898 190.71413,0.10917 0,0.19895 -1.61589,3.85911 -3.59086,8.13368 -4.38822,9.49774 -7.99219,23.30559 -8.95057,34.292243 l -0.71682,8.21748 H 200.98738 10 Z"
       style="fill:#a8cb53" />
  </g>
  <g
     id="g2819"
     transform="matrix(0.31781145,0,0,0.31781145,293.2812,302.48488)">
    <path
       id="path2664"
       d="m 933.90248,115.43864 c -0.5942,0 -1.1554,-0.23108 -1.5791,-0.65473 l -4.3107,-4.31353 c -2.2173,-2.21453 -3.2572,-5.27911 -2.8528,-8.40972 0.2779,-2.159505 1.3507,-4.269505 3.0206,-5.939345 l 5.59,-5.58997 c 0.4209,-0.4209 0.9821,-0.65474 1.579,-0.65474 0.597,0 1.1582,0.23384 1.5818,0.65474 l 8.1402,8.14287 c 0.4236,0.42366 0.6547,0.98485 0.6547,1.581815 0,0.59695 -0.2311,1.15816 -0.6547,1.57906 l -5.7578,5.74953 c -1.6644,1.67534 -2.7813,3.76883 -3.2214,6.05764 -0.2008,1.04262 -1.1224,1.79638 -2.1898,1.79638"
       style="fill:#ffffff;fill-opacity:1;fill-rule:nonzero;stroke:none;stroke-width:0.704249" />
    <path
       id="path2666"
       d="m 928.07588,77.411955 c -0.9133,0 -1.7193,-0.54194 -2.0494,-1.38099 -0.4677,-1.18017 -0.7043,-2.42636 -0.7043,-3.70281 0,-2.67945 1.0426,-5.19659 2.9353,-7.09201 l 7.2048,-7.19379 c 0.4182,-0.4209 0.9794,-0.65198 1.5736,-0.65198 1.0646,0 1.9807,0.75101 2.1787,1.79088 0.2724,1.4195 0.7978,2.75648 1.5681,3.97516 0.5667,0.89682 0.4456,2.04122 -0.2944,2.78123 l -10.8306,10.81958 c -0.4208,0.42365 -0.982,0.65473 -1.5818,0.65473"
       style="fill:#f04a23;fill-opacity:1;fill-rule:nonzero;stroke:none;stroke-width:0.704249" />
    <path
       id="path2668"
       d="m 935.34948,85.582345 c -0.5969,0 -1.1581,-0.23108 -1.579,-0.65474 l -3.337,-3.33417 c -0.8693,-0.87206 -0.8693,-2.28881 0,-3.16087 l 11.0204,-11.0204 c 0.4237,-0.4209 0.9849,-0.65473 1.5818,-0.65473 0.597,0 1.1582,0.23383 1.5791,0.65473 l 3.3369,3.33418 c 0.8693,0.87206 0.8693,2.29156 0,3.16087 l -11.0204,11.02039 c -0.4236,0.42366 -0.9848,0.65474 -1.5818,0.65474"
       style="fill:#eb212b;fill-opacity:1;fill-rule:nonzero;stroke:none;stroke-width:0.704249" />
    <path
       id="path2670"
       d="m 947.88018,98.102015 c -0.5997,0 -1.1609,-0.23108 -1.5818,-0.65473 l -8.1429,-8.14013 c -0.4209,-0.42365 -0.6547,-0.98484 -0.6547,-1.58181 0,-0.59696 0.2338,-1.15815 0.6547,-1.5818 l 11.0204,-11.0094 c 0.4237,-0.42365 0.9848,-0.65473 1.5818,-0.65473 0.597,0 1.1582,0.23108 1.5791,0.65473 l 3.2929,3.29017 0.041,0.0523 c 1.48,1.81014 2.2613,4.00541 2.2613,6.34374 0,2.66844 -1.0427,5.18558 -2.9353,7.08926 l -5.5377,5.5377 c -0.4209,0.42365 -0.9821,0.65473 -1.5791,0.65473"
       style="fill:#f37514;fill-opacity:1;fill-rule:nonzero;stroke:none;stroke-width:0.704249" />
    <path
       id="path2672"
       d="m 943.48688,62.009255 c -0.9106,0 -1.7139,-0.53919 -2.0467,-1.37548 -0.4705,-1.18017 -0.7098,-2.42911 -0.7098,-3.71382 0,-2.22278 0.718,-4.33553 2.044,-6.07139 l -0.028,-0.0275 0.8307,-0.95184 c 2.4567,-2.81424 3.8101,-6.43177 3.8101,-10.1896 0,-0.92708 0.6988,-1.65334 1.5901,-1.65334 0.4897,0 0.9546,0.21458 1.381,0.64098 l 1.6506,1.64783 c 3.8651,3.90914 3.8486,10.25288 -0.041,14.14275 l -6.8967,6.89669 c -0.4236,0.4209 -0.9848,0.65473 -1.5845,0.65473"
       style="fill:#eb212b;fill-opacity:1;fill-rule:nonzero;stroke:none;stroke-width:0.704249" />
    <path
       id="path2674"
       d="m 914.145,95.799455 c -0.63273,0 -1.1224,-0.36588 -1.47727,-0.68499 -1.79089,-1.60107 -2.99031,-4.47033 -2.99031,-7.14153 0,-2.67669 1.04262,-5.19659 2.93529,-7.08925 l 7.43037,-7.43038 c 0.4237,-0.42365 0.9849,-0.65473 1.5791,-0.65473 1.0673,0 1.9889,0.75376 2.1897,1.79088 0.2724,1.41125 0.7978,2.74272 1.5653,3.9614 0.564,0.89957 0.4429,2.04672 -0.2998,2.78674 l -6.00539,6.00537 c -1.84865,1.84865 -3.00131,4.19798 -3.33693,6.79215 l -0.005,0.0413 c -0.17882,1.54604 -1.35073,1.62307 -1.58456,1.62307"
       style="fill:#f37514;fill-opacity:1;fill-rule:nonzero;stroke:none;stroke-width:0.704249" />
    <path
       id="path2676"
       d="m 955.58288,105.80749 c -0.5969,0 -1.1581,-0.23383 -1.5818,-0.65474 l -3.3259,-3.32592 c -0.4209,-0.4209 -0.6547,-0.98209 -0.6547,-1.57906 0,-0.596955 0.2338,-1.160905 0.6547,-1.581795 l 5.5377,-5.53771 c 1.7689,-1.76888 2.9078,-3.99442 3.2929,-6.43728 0.2696,-1.7001 1.5323,-1.78538 1.7826,-1.78538 0.8969,0 1.5846,0.67674 2.0825,1.2682 3.2214,3.8211 2.9188,9.85123 -0.6712,13.44125 l -5.5377,5.537695 c -0.4209,0.42091 -0.9821,0.65474 -1.5791,0.65474"
       style="fill:#f3b80a;fill-opacity:1;fill-rule:nonzero;stroke:none;stroke-width:0.704249" />
    <path
       id="path2678"
       d="m 941.90778,123.58152 c -0.3438,0 -0.8555,-0.099 -1.3479,-0.56945 -1.8735,-1.79638 -2.9216,-4.26401 -2.9518,-6.94896 -0.028,-2.71795 1.0398,-5.36164 2.9325,-7.25156 l 5.7495,-5.75779 c 0.4209,-0.42365 0.9821,-0.65472 1.5791,-0.65472 0.5997,0 1.1582,0.23107 1.5818,0.65472 l 3.3259,3.32318 c 0.4209,0.42365 0.6548,0.98485 0.6548,1.58181 0,0.59696 -0.2339,1.15816 -0.6548,1.57906 l -5.7578,5.75779 c -1.8404,1.84039 -2.9903,4.15947 -3.3314,6.70411 -0.121,0.90232 -0.8858,1.58181 -1.7799,1.58181"
       style="fill:#f8e105;fill-opacity:1;fill-rule:nonzero;stroke:none;stroke-width:0.704249" />
    <path
       id="path2680"
       d="m 921.67168,103.34537 c -0.4952,0 -0.9821,-0.20908 -1.3673,-0.58871 -1.89537,-1.87342 -2.9435,-4.379545 -2.95175,-7.056245 -0.005,-2.6987 1.03987,-5.23235 2.94625,-7.13327 l 5.7578,-5.75503 c 0.4237,-0.42365 0.9849,-0.65749 1.5818,-0.65749 0.597,0 1.1582,0.23384 1.5791,0.65749 l 3.3342,3.33418 c 0.872,0.8693 0.872,2.28881 0,3.16086 l -5.7578,5.75779 c -1.8377,1.83765 -2.9931,4.15672 -3.3369,6.709615 -0.1211,0.89682 -0.8886,1.57081 -1.7854,1.57081"
       style="fill:#f04a23;fill-opacity:1;fill-rule:nonzero;stroke:none;stroke-width:0.704249" />
    <path
       id="path2682"
       d="m 961.60198,115.18556 c -1.0646,0 -1.9862,-0.75378 -2.187,-1.79089 -0.2778,-1.42225 -0.806,-2.76198 -1.5763,-3.98066 -0.5694,-0.89957 -0.4456,-2.04672 0.2944,-2.78948 l 5.7935,-5.7908 c 1.8404,-1.843145 2.9903,-4.173225 3.3287,-6.745385 0.11,-0.83629 0.8583,-1.44426 1.7826,-1.44426 0.5392,0 1.0481,0.21458 1.392,0.59146 1.7744,1.93394 2.795,4.30803 2.8693,6.68487 0.055,1.757865 -0.3494,3.504735 -1.1719,5.050775 -0.4512,0.85281 -1.0344,1.64233 -1.7331,2.33833 l -7.2103,7.21855 c -0.4237,0.42365 -0.9849,0.65749 -1.5819,0.65749"
       style="fill:#f37514;fill-opacity:1;fill-rule:nonzero;stroke:none;stroke-width:0.704249" />
    <path
       id="path2684"
       d="m 949.55548,131.26499 c -0.4786,0 -0.9463,-0.20358 -1.3149,-0.5722 -3.8982,-3.91739 -3.8982,-10.27764 0,-14.17851 l 5.2874,-5.28738 c 0.5722,-0.5722 1.1664,-0.69324 1.5598,-0.69324 1.1251,0 1.9449,0.91883 2.2585,1.83215 0.3659,1.05362 0.5474,2.15951 0.5474,3.28741 0,2.67394 -1.0343,5.18834 -2.916,7.07825 l -0.1513,0.15406 -0.01,0.003 -0.1018,0.10453 c -1.7881,1.78264 -2.9325,4.04944 -3.3039,6.55282 -0.1458,0.97935 -0.9464,1.71936 -1.8597,1.71936"
       style="fill:#f37514;fill-opacity:1;fill-rule:nonzero;stroke:none;stroke-width:0.704249" />
    <path
       id="path2686"
       d="m 950.77968,70.152135 c -0.5914,0 -1.1499,-0.22833 -1.5708,-0.64648 l -3.3534,-3.31217 c -0.4264,-0.42365 -0.663,-0.98485 -0.6658,-1.58456 0,-0.59971 0.2311,-1.16366 0.6548,-1.58731 l 7.3396,-7.34785 c 1.7826,-1.78813 2.9243,-4.04393 3.3011,-6.52255 0.1486,-0.97385 0.9519,-1.70836 1.8707,-1.70836 0.3136,0 0.7868,0.0825 1.2517,0.48692 1.8266,1.57906 3.0096,4.38781 3.0096,7.15804 0,2.67944 -1.0427,5.19658 -2.9381,7.08925 l -7.3176,7.32034 c -0.4236,0.42365 -0.9848,0.65473 -1.5818,0.65473"
       style="fill:#eb212b;fill-opacity:1;fill-rule:nonzero;stroke:none;stroke-width:0.704249" />
    <path
       id="path2688"
       d="m 970.93608,104.33847 c -0.3906,0.73451 -0.8941,1.414 -1.4965,2.01646 l -7.2103,7.21855 c -0.4952,0.49793 -1.3563,0.25034 -1.4911,-0.4374 -0.3053,-1.58181 -0.8995,-3.08384 -1.7578,-4.44282 -0.2256,-0.35488 -0.1898,-0.81704 0.11,-1.11414 l 5.7908,-5.79356 c 2.1128,-2.112735 3.3507,-4.761925 3.7111,-7.521145 0.039,-0.29161 0.6107,-0.37138 0.8418,-0.1183 1.4717,1.60382 2.4483,3.63679 2.5144,5.81556 0.049,1.554295 -0.3054,3.045325 -1.0124,4.376795 z m -14.726,-0.1403 c -0.3466,0.34662 -0.9078,0.34662 -1.2544,0 l -3.3259,-3.32593 c -0.3439,-0.34662 -0.3439,-0.905065 0,-1.251685 l 5.5377,-5.53771 c 1.9807,-1.9807 3.2434,-4.47033 3.6725,-7.18004 0.063,-0.40439 0.2834,-1.30121 1.4993,0.1403 2.7317,3.2434 2.5749,8.44824 -0.5942,11.61736 z m -2.187,17.58147 -0.016,0.008 -0.2393,0.25033 c -2.0605,2.05223 -3.2874,4.62714 -3.6863,7.30934 -0.058,0.38238 -0.4594,0.81704 -0.8831,0.39338 -3.3424,-3.35893 -3.3837,-8.89114 0,-12.27209 l 5.2874,-5.28736 c 0.751,-0.75101 1.4058,0.0963 1.5873,0.62171 0.3136,0.90508 0.4759,1.86517 0.4759,2.85002 0,2.31081 -0.894,4.48958 -2.5254,6.12641 z m -11.6724,0.0413 c -0.044,0.32461 -0.4374,0.61621 -0.8555,0.21732 -3.3837,-3.24339 -3.3837,-8.89114 0,-12.27209 l 5.7495,-5.75778 c 0.3439,-0.34662 0.9051,-0.34662 1.2517,0 l 3.3259,3.32317 c 0.3467,0.34663 0.3467,0.90783 0,1.25445 l -5.7577,5.75778 c -2.0495,2.04948 -3.337,4.65465 -3.7139,7.47715 z m -7.5844,-8.43448 c -0.132,0.69049 -0.9903,0.94083 -1.4883,0.4429 l -4.3135,-4.31077 c -1.9064,-1.90918 -2.817,-4.56111 -2.4676,-7.28458 0.2531,-1.96419 1.2407,-3.760575 2.6382,-5.160815 l 5.5872,-5.58723 c 0.3466,-0.34662 0.9078,-0.34662 1.2544,0 l 8.1402,8.14288 c 0.3466,0.34662 0.3466,0.907815 0,1.251695 l -5.7578,5.74953 c -1.8679,1.87616 -3.1031,4.21724 -3.5928,6.75639 z m -12.6462,-11.79343 c -0.044,0.32186 -0.4539,0.61071 -0.8666,0.20357 -3.40842,-3.367185 -3.39192,-8.891135 0,-12.272085 l 5.7578,-5.76054 c 0.3466,-0.34387 0.9051,-0.34387 1.2517,0 l 3.3342,3.33418 c 0.3466,0.34663 0.3466,0.90782 0,1.25445 l -5.7578,5.75778 c -2.0495,2.05223 -3.3369,4.6574 -3.7193,7.482645 z m -7.72474,-7.631195 c -0.0385,0.2971 -0.044,0.85005 -0.82805,0.14855 -1.46902,-1.31496 -2.5419,-3.81835 -2.5419,-6.13742 0,-2.31907 0.90507,-4.49784 2.5419,-6.13467 l 7.43039,-7.43037 c 0.4952,-0.49518 1.3535,-0.25034 1.4883,0.4374 0.3026,1.57356 0.8968,3.07009 1.7468,4.42356 0.2256,0.35763 0.1899,0.81704 -0.11,1.11415 l -6.00263,6.00537 c -2.121,2.121 -3.36719,4.8032 -3.72481,7.57343 z m 14.81674,-27.77107 7.202,-7.19379 c 0.4925,-0.48968 1.3453,-0.24484 1.4746,0.4374 0.3026,1.57906 0.894,3.08384 1.7523,4.44282 0.2229,0.35213 0.1871,0.80879 -0.1073,1.10589 l -10.8278,10.81958 c -0.4401,0.4374 -1.1994,0.30536 -1.425,-0.26685 -0.3989,-1.00685 -0.608,-2.09349 -0.608,-3.20763 0,-2.32182 0.9024,-4.49784 2.5392,-6.13742 z m 13.1964,2.17602 c 0.3466,-0.34387 0.9078,-0.34387 1.2545,0 l 3.3341,3.33418 c 0.3439,0.34662 0.3439,0.90782 0,1.25169 l -11.0204,11.0204 c -0.3466,0.34662 -0.9078,0.34662 -1.2544,0 l -3.3342,-3.33418 c -0.3439,-0.34387 -0.3439,-0.90507 0,-1.25169 z m 2.2118,-17.58147 -0.027,-0.0275 c 2.6849,-3.07284 4.1457,-6.95996 4.1457,-11.07817 0,-0.24759 0.2118,-0.51168 0.6657,-0.0578 l 1.6093,1.60932 c 0.01,0.008 0.028,0.0248 0.036,0.0358 3.3479,3.38095 3.3369,8.86088 -0.036,12.23633 l -6.8967,6.89669 c -0.4374,0.43465 -1.1939,0.30535 -1.4222,-0.26685 -0.4044,-1.00685 -0.6162,-2.09624 -0.6162,-3.21314 0,-2.31081 0.905,-4.49784 2.5419,-6.13466 z m 13.1992,-1.4305 c 0.061,-0.39614 0.4566,-0.79228 0.9078,-0.4044 1.546,1.33973 2.5391,3.81835 2.5391,6.13743 0,2.31081 -0.9023,4.49784 -2.5391,6.13741 l -7.3204,7.31759 c -0.3466,0.34662 -0.9023,0.34662 -1.2489,0.006 l -3.3534,-3.31492 c -0.3494,-0.34662 -0.3522,-0.91057 -0.01,-1.25719 l 7.3396,-7.34785 c 2.044,-2.05223 3.2764,-4.60788 3.6808,-7.27357 z m -3.1939,29.97735 c 1.2682,1.54879 1.9587,3.46072 1.9587,5.48819 0,2.31081 -0.9051,4.48958 -2.5419,6.13742 l -5.5377,5.53771 c -0.3467,0.34387 -0.9051,0.34387 -1.2517,0 l -8.1429,-8.14288 c -0.3439,-0.34663 -0.3439,-0.90782 0,-1.25445 l 11.0204,-11.00939 c 0.3466,-0.34662 0.9051,-0.34662 1.2517,0 z m 17.9501,11.62561 -18.0327,-18.04088 c -0.3438,-0.34387 -0.3438,-0.90507 0,-1.25169 l 7.3176,-7.31484 c 2.5667,-2.5584 3.9284,-5.99987 3.8294,-9.63391 -0.096,-3.46897 -1.6644,-6.73438 -4.1155,-9.18825 l -7.4358,-7.43312 -9.722,-9.72194 c -0.3411,-0.34112 -0.8968,-0.34112 -1.2379,0 l -1.9147,1.91468 c -0.3356,0.33286 -0.3329,0.8638 -0.019,1.21868 2.2558,2.57216 3.3424,5.92834 3.0068,9.41933 -0.2861,2.94904 -1.7056,5.6725 -3.8019,7.76874 l -29.73525,29.73527 c -2.46487,2.46487 -4.03292,5.75228 -4.1127,9.23776 -0.0825,3.62028 1.29021,7.02599 3.83211,9.57614 l 43.85874,43.850495 c 0.3466,0.34663 0.9051,0.34663 1.2517,0 l 1.8762,-1.87616 c 0.3438,-0.34387 0.3466,-0.90232 0,-1.24894 l -0.5309,-0.53369 c -1.7249,-1.72486 -2.6327,-4.04668 -2.5337,-6.5033 0.093,-2.25579 1.1362,-4.37129 2.7345,-5.96961 l 0.047,-0.0468 15.4,-15.39719 0.036,-0.0275 c 2.4786,-2.47863 3.8321,-5.77429 3.8321,-9.27078 0,-3.499235 -1.3535,-6.792145 -3.8321,-9.262515"
       style="fill:#1e1714;fill-opacity:1;fill-rule:nonzero;stroke:none;stroke-width:0.704249" />
  </g>
  <text
     font-size="12.8"
     style="font-style:normal;font-weight:normal;font-size:12.8px;font-family:'Open Sans Condensed';text-anchor:start;fill:#000000;stroke-width:1"
     x="580.59509"
     y="385.60831"
     id="text618-8"><tspan
       style="stroke-width:1"
       x="580.59509"
       y="385.60831"
       id="tspan614-3">Heat</tspan></text>
</svg>
